<svg xmlns="http://www.w3.org/2000/svg" width="50" height="50"><path d="M31 2C22 2 13.512 5.824 9.078 13.5c-3.137 5.438-3.953 12.016-2.234 18.043 1.656 5.812 5.433 10.55 10.644 13.348C21.426 47 26 48 30 48c4.586 0 8.57-1.328 12.574-4.078.38-.262.543-.73.41-1.168a1.052 1.052 0 0 0-.996-.738c-3.636-.02-7.61-1.82-10.812-3.98-2.164.136-7.133.612-9.676-.036-1.71-.438-4.41-1.703-5.516-4.938 3.758 2.75 8.418 2.024 11.418 1.942-.988-.957-1.738-1.863-2.136-2.598l2.27-1.515a.99.99 0 0 0 .444-.91 1.003 1.003 0 0 0-.585-.833c-.016-.007-.86-.406-1.836-1.34.296-.32.55-.714.734-1.163.45-1.086.687-2.575.707-4.633a.99.99 0 0 0-.29-.715A.996.996 0 0 0 26 21h-3v2h-.191c-.004 0 0 0 0 0h-.872c-.214 3.332-1.39 5.059-2.953 5.059-1.527 0-2.754-1.688-2.957-5.059H12a1 1 0 1 1 0-2h11.031C23 12.453 28.761 5.809 31.566 3.926c.368-.246.54-.7.43-1.13-.113-.429-.555-.76-.996-.796Z"/></svg>